<svg width="380" height="22" viewBox="0 0 380 22" fill="none" xmlns="http://www.w3.org/2000/svg">
<rect width="380" height="22" fill="#1E1E1E"/>
<path d="M-1406 -223H441V1352C441 1359.18 435.18 1365 428 1365H-1393C-1400.18 1365 -1406 1359.18 -1406 1352V-223Z" fill="white" fill-opacity="0.0470588"/>
<g clip-path="url(#clip0_0_1)">
<rect width="375" height="1424" transform="translate(2 -123)" fill="white"/>
<path d="M4.29688 40C3.64583 40 3.32031 39.6419 3.32031 38.9258V13.0664C3.32031 12.3503 3.64583 11.9922 4.29688 11.9922H20.9961C21.7122 11.9922 22.0703 12.2852 22.0703 12.8711V14.3164C22.0703 14.9023 21.7122 15.1953 20.9961 15.1953H7.07031V23.75H12.8906C17.2786 23.75 20.2865 24.4857 21.9141 25.957C23.5547 27.4154 24.375 29.388 24.375 31.875C24.375 34.362 23.5547 36.3411 21.9141 37.8125C20.2865 39.2708 17.2786 40 12.8906 40H4.29688ZM7.07031 36.7969H12.2656C15.0651 36.7969 17.1159 36.4193 18.418 35.6641C19.7201 34.8958 20.3711 33.6328 20.3711 31.875C20.3711 30.1172 19.7201 28.8607 18.418 28.1055C17.1159 27.3372 15.0651 26.9531 12.2656 26.9531H7.07031V36.7969ZM27.6758 20.4492C27.4414 19.8112 27.6172 19.4922 28.2031 19.4922H30.332C30.7617 19.4922 31.0547 19.7461 31.2109 20.2539L35.3125 33.1445C35.4297 33.4961 35.6055 34.0495 35.8398 34.8047C36.0872 35.5469 36.263 36.2109 36.3672 36.7969H36.4062C36.5104 36.2109 36.6341 35.6836 36.7773 35.2148C36.9336 34.7331 37.1615 34.043 37.4609 33.1445L41.6016 20.2539C41.7708 19.7461 42.0638 19.4922 42.4805 19.4922H44.6094C45.1953 19.4922 45.3711 19.8112 45.1367 20.4492L38.5547 38.8086C37.3177 42.2591 36.2109 44.6745 35.2344 46.0547C34.2578 47.4479 32.7995 48.1445 30.8594 48.1445C29.8438 48.1445 29.0365 47.9948 28.4375 47.6953C28.1641 47.5651 28.0729 47.3633 28.1641 47.0898L28.6719 45.5078C28.763 45.2344 28.9388 45.1562 29.1992 45.2734C29.7331 45.4948 30.2474 45.6055 30.7422 45.6055C31.6536 45.6055 32.3958 45.1107 32.9688 44.1211C33.5417 43.1445 33.9974 42.1615 34.3359 41.1719L34.7266 40.0195L27.6758 20.4492ZM45.7812 46.0547C45.2604 46.0547 45 45.7617 45 45.1758V38.3008C45 37.7148 45.293 37.4219 45.8789 37.4219H47.1289C48.4701 36.1719 49.3359 34.2122 49.7266 31.543C50.1302 28.8737 50.332 26.6471 50.332 24.8633V20.3711C50.332 19.7852 50.7422 19.4922 51.5625 19.4922H62.5977C63.1836 19.4922 63.4766 19.7852 63.4766 20.3711V37.4219H65.8008C66.3867 37.4219 66.6797 37.7148 66.6797 38.3008V45.1758C66.6797 45.7617 66.4193 46.0547 65.8984 46.0547H64.4531C63.9323 46.0547 63.6719 45.7617 63.6719 45.1758V40H48.0078V45.1758C48.0078 45.7617 47.7474 46.0547 47.2266 46.0547H45.7812ZM50.5664 37.4219H60.0391V22.0703H53.3398V25.9375C53.3398 29.349 53.0273 32.0117 52.4023 33.9258C51.7904 35.8398 51.1784 37.0052 50.5664 37.4219ZM69.1211 20.4492C68.8867 19.8112 69.0625 19.4922 69.6484 19.4922H71.7773C72.207 19.4922 72.5 19.7461 72.6562 20.2539L76.7578 33.1445C76.875 33.4961 77.0508 34.0495 77.2852 34.8047C77.5326 35.5469 77.7083 36.2109 77.8125 36.7969H77.8516C77.9557 36.2109 78.0794 35.6836 78.2227 35.2148C78.3789 34.7331 78.6068 34.043 78.9062 33.1445L83.0469 20.2539C83.2161 19.7461 83.5091 19.4922 83.9258 19.4922H86.0547C86.6406 19.4922 86.8164 19.8112 86.582 20.4492L80 38.8086C78.763 42.2591 77.6562 44.6745 76.6797 46.0547C75.7031 47.4479 74.2448 48.1445 72.3047 48.1445C71.2891 48.1445 70.4818 47.9948 69.8828 47.6953C69.6094 47.5651 69.5182 47.3633 69.6094 47.0898L70.1172 45.5078C70.2083 45.2344 70.3841 45.1562 70.6445 45.2734C71.1784 45.4948 71.6927 45.6055 72.1875 45.6055C73.099 45.6055 73.8411 45.1107 74.4141 44.1211C74.987 43.1445 75.4427 42.1615 75.7812 41.1719L76.1719 40.0195L69.1211 20.4492ZM90.7617 40C90.1758 40 89.8828 39.707 89.8828 39.1211V20.3711C89.8828 19.7852 90.1758 19.4922 90.7617 19.4922H92.4414C93.0273 19.4922 93.3203 19.7852 93.3203 20.3711V37.4219H101.719V20.3711C101.719 19.7852 102.012 19.4922 102.598 19.4922H104.277C104.863 19.4922 105.156 19.7852 105.156 20.3711V37.4219H113.555V20.3711C113.555 19.7852 113.848 19.4922 114.434 19.4922H116.113C116.699 19.4922 116.992 19.7852 116.992 20.3711V37.4219H119.355C119.941 37.4219 120.234 37.7148 120.234 38.3008V45.1758C120.234 45.7617 119.974 46.0547 119.453 46.0547H118.008C117.487 46.0547 117.227 45.7617 117.227 45.1758V40H90.7617ZM124.98 40C124.395 40 124.102 39.707 124.102 39.1211V20.3711C124.102 19.7852 124.395 19.4922 124.98 19.4922H126.66C127.246 19.4922 127.539 19.7852 127.539 20.3711V34.7852C127.539 35.1758 127.526 35.5664 127.5 35.957H127.539L136.484 20.4492C136.849 19.8112 137.409 19.4922 138.164 19.4922H140.527C141.113 19.4922 141.406 19.7852 141.406 20.3711V39.1211C141.406 39.707 141.113 40 140.527 40H138.848C138.262 40 137.969 39.707 137.969 39.1211V24.707C137.969 24.3164 137.982 23.9258 138.008 23.5352H137.969L129.023 39.043C128.659 39.681 128.099 40 127.344 40H124.98ZM147.832 40C147.246 40 146.953 39.707 146.953 39.1211V20.3711C146.953 19.7852 147.246 19.4922 147.832 19.4922H149.512C150.098 19.4922 150.391 19.7852 150.391 20.3711V34.7852C150.391 35.1758 150.378 35.5664 150.352 35.957H150.391L159.336 20.4492C159.701 19.8112 160.26 19.4922 161.016 19.4922H163.379C163.965 19.4922 164.258 19.7852 164.258 20.3711V39.1211C164.258 39.707 163.965 40 163.379 40H161.699C161.113 40 160.82 39.707 160.82 39.1211V24.707C160.82 24.3164 160.833 23.9258 160.859 23.5352H160.82L151.875 39.043C151.51 39.681 150.951 40 150.195 40H147.832ZM148.711 12.5586C148.672 11.9727 148.965 11.6797 149.59 11.6797H151.074C151.595 11.6797 151.888 11.9727 151.953 12.5586L152.031 13.2227C152.135 14.0951 152.513 14.6419 153.164 14.8633C153.815 15.0846 154.629 15.1953 155.605 15.1953C156.582 15.1953 157.396 15.0846 158.047 14.8633C158.698 14.6419 159.076 14.0951 159.18 13.2227L159.258 12.5586C159.323 11.9727 159.616 11.6797 160.137 11.6797H161.621C162.246 11.6797 162.539 11.9727 162.5 12.5586L162.422 13.75C162.331 15.0521 161.576 16.0221 160.156 16.6602C158.75 17.2982 157.233 17.6172 155.605 17.6172C153.978 17.6172 152.454 17.2982 151.035 16.6602C149.629 16.0221 148.88 15.0521 148.789 13.75L148.711 12.5586ZM182.383 26.2109V20.3711C182.383 19.7852 182.676 19.4922 183.262 19.4922H184.941C185.527 19.4922 185.82 19.7852 185.82 20.3711V25.6641C185.82 27.2786 186.133 28.3073 186.758 28.75C187.383 29.1797 188.203 29.3945 189.219 29.3945C190.625 29.3945 191.797 29.3164 192.734 29.1602C193.685 29.0039 194.388 28.6784 194.844 28.1836V20.3711C194.844 19.7852 195.137 19.4922 195.723 19.4922H197.402C197.988 19.4922 198.281 19.7852 198.281 20.3711V39.1211C198.281 39.707 197.988 40 197.402 40H195.723C195.137 40 194.844 39.707 194.844 39.1211V32.0117C194.857 31.6211 194.87 31.2305 194.883 30.8398H194.805C194.492 31.1654 193.685 31.4323 192.383 31.6406C191.094 31.8359 189.876 31.9336 188.73 31.9336C186.751 31.9336 185.195 31.4388 184.062 30.4492C182.943 29.4596 182.383 28.0469 182.383 26.2109ZM202.715 29.7461C202.715 26.5169 203.522 23.9453 205.137 22.0312C206.751 20.1172 209.062 19.1602 212.07 19.1602C214.57 19.1602 216.641 20.0391 218.281 21.7969C219.935 23.5417 220.762 26.3346 220.762 30.1758C220.762 30.7617 220.495 31.0547 219.961 31.0547H206.348C206.569 33.5677 207.246 35.319 208.379 36.3086C209.512 37.2852 210.794 37.7734 212.227 37.7734C213.737 37.7734 214.896 37.5195 215.703 37.0117C216.51 36.5039 217.103 36.0026 217.48 35.5078C217.897 34.9609 218.301 34.8568 218.691 35.1953L219.844 36.1914C220.143 36.4518 220.143 36.8099 219.844 37.2656C219.596 37.6432 218.887 38.2487 217.715 39.082C216.556 39.9154 214.727 40.332 212.227 40.332C208.971 40.332 206.569 39.375 205.02 37.4609C203.483 35.5469 202.715 32.9753 202.715 29.7461ZM206.27 28.5156H217.305C217.253 26.6927 216.784 25.0977 215.898 23.7305C215.013 22.3503 213.711 21.6602 211.992 21.6602C210.482 21.6602 209.199 22.168 208.145 23.1836C207.09 24.1862 206.465 25.9635 206.27 28.5156ZM226.152 40C225.566 40 225.273 39.707 225.273 39.1211V20.3711C225.273 19.7852 225.566 19.4922 226.152 19.4922H229.863C230.267 19.4922 230.56 19.7461 230.742 20.2539L235.215 33.1445C235.306 33.418 235.475 33.9193 235.723 34.6484C235.97 35.3776 236.178 36.0677 236.348 36.7188H236.426C236.595 36.0677 236.803 35.3776 237.051 34.6484C237.298 33.9193 237.467 33.418 237.559 33.1445L242.031 20.2539C242.214 19.7461 242.507 19.4922 242.91 19.4922H246.621C247.207 19.4922 247.5 19.7852 247.5 20.3711V39.1211C247.5 39.707 247.207 40 246.621 40H244.941C244.355 40 244.062 39.707 244.062 39.1211V24.375C244.062 23.9844 244.076 23.5938 244.102 23.2031H244.062L238.203 38.8086C237.904 39.6029 237.552 40 237.148 40H235.625C235.221 40 234.87 39.6029 234.57 38.8086L228.711 23.2031H228.672C228.698 23.5938 228.711 23.9844 228.711 24.375V39.1211C228.711 39.707 228.418 40 227.832 40H226.152ZM253.926 40C253.34 40 253.047 39.707 253.047 39.1211V20.3711C253.047 19.7852 253.34 19.4922 253.926 19.4922H268.379C268.965 19.4922 269.258 19.7852 269.258 20.3711V39.1211C269.258 39.707 268.965 40 268.379 40H266.699C266.113 40 265.82 39.707 265.82 39.1211V22.0703H256.484V39.1211C256.484 39.707 256.191 40 255.605 40H253.926ZM275.684 40C275.098 40 274.805 39.707 274.805 39.1211V20.3711C274.805 19.7852 275.098 19.4922 275.684 19.4922H277.363C277.949 19.4922 278.242 19.7852 278.242 20.3711V34.7852C278.242 35.1758 278.229 35.5664 278.203 35.957H278.242L287.188 20.4492C287.552 19.8112 288.112 19.4922 288.867 19.4922H291.23C291.816 19.4922 292.109 19.7852 292.109 20.3711V39.1211C292.109 39.707 291.816 40 291.23 40H289.551C288.965 40 288.672 39.707 288.672 39.1211V24.707C288.672 24.3164 288.685 23.9258 288.711 23.5352H288.672L279.727 39.043C279.362 39.681 278.802 40 278.047 40H275.684ZM296.543 29.7461C296.543 26.6862 297.35 24.1602 298.965 22.168C300.592 20.1628 302.969 19.1602 306.094 19.1602C309.219 19.1602 311.589 20.1628 313.203 22.168C314.831 24.1602 315.645 26.6862 315.645 29.7461C315.645 32.806 314.831 35.3385 313.203 37.3438C311.589 39.3359 309.219 40.332 306.094 40.332C302.969 40.332 300.592 39.3359 298.965 37.3438C297.35 35.3385 296.543 32.806 296.543 29.7461ZM300.176 29.7461C300.176 32.4805 300.716 34.5052 301.797 35.8203C302.878 37.1354 304.31 37.793 306.094 37.793C307.878 37.793 309.31 37.1354 310.391 35.8203C311.471 34.5052 312.012 32.4805 312.012 29.7461C312.012 27.0117 311.471 24.987 310.391 23.6719C309.31 22.3568 307.878 21.6992 306.094 21.6992C304.31 21.6992 302.878 22.3568 301.797 23.6719C300.716 24.987 300.176 27.0117 300.176 29.7461ZM320.957 40C320.371 40 320.078 39.707 320.078 39.1211V20.3711C320.078 19.7852 320.371 19.4922 320.957 19.4922H322.637C323.223 19.4922 323.516 19.7852 323.516 20.3711V28.0078H332.969V20.3711C332.969 19.7852 333.262 19.4922 333.848 19.4922H335.527C336.113 19.4922 336.406 19.7852 336.406 20.3711V39.1211C336.406 39.707 336.113 40 335.527 40H333.848C333.262 40 332.969 39.707 332.969 39.1211V30.5859H323.516V39.1211C323.516 39.707 323.223 40 322.637 40H320.957Z" fill="black"/>
</g>
<defs>
<clipPath id="clip0_0_1">
<rect width="375" height="1424" fill="white" transform="translate(2 -123)"/>
</clipPath>
</defs>
</svg>
